<svg xmlns="http://www.w3.org/2000/svg" viewBox="0.0 0.0 200.0 200.0" height="200px" width="200px"><path fill="#7799cc" fill_opacity="0.0" stroke="none" stroke-width="1.0" stroke-opacity="1.0"  filling="0" d="M0.0 0.0 M1.0 0.0 M1.0 0.0 M62.0 121.0 C62.0 118.0 63.0 115.0 65.0 112.0 C65.0 112.0 65.0 112.0 65.0 112.0 C65.0 111.0 66.0 111.0 66.0 110.0 C65.0 109.0 64.0 112.0 63.0 113.0 C63.0 114.0 62.0 115.0 62.0 115.0 C62.0 114.0 62.0 112.0 61.0 111.0 C61.0 107.0 60.0 102.0 58.0 99.0 C56.0 93.0 55.0 91.0 50.0 85.0 C47.0 82.0 44.0 77.0 46.0 71.0 C45.0 70.0 46.0 65.0 45.0 63.0 C46.0 61.0 47.0 57.0 48.0 56.0 C49.0 56.0 49.0 56.0 49.0 56.0 C50.0 56.0 50.0 57.0 51.0 56.0 C51.0 55.0 50.0 56.0 49.0 55.0 C47.0 54.0 46.0 51.0 46.0 49.0 C47.0 49.0 48.0 50.0 48.0 51.0 C48.0 51.0 48.0 51.0 49.0 51.0 C50.0 52.0 51.0 53.0 51.0 51.0 C51.0 51.0 51.0 50.0 51.0 50.0 C51.0 50.0 51.0 50.0 51.0 49.0 C51.0 49.0 52.0 48.0 53.0 48.0 C53.0 51.0 55.0 51.0 55.0 51.0 C56.0 51.0 56.0 51.0 56.0 51.0 C56.0 52.0 56.0 53.0 56.0 53.0 C57.0 54.0 57.0 54.0 58.0 54.0 C58.0 55.0 59.0 56.0 60.0 56.0 C60.0 56.0 60.0 56.0 60.0 56.0 C60.0 56.0 60.0 56.0 60.0 56.0 C60.0 56.0 60.0 56.0 60.0 56.0 C60.0 56.0 60.0 56.0 60.0 56.0 C60.0 55.0 58.0 54.0 57.0 52.0 C58.0 52.0 58.0 52.0 58.0 53.0 C59.0 53.0 59.0 53.0 60.0 53.0 C60.0 53.0 60.0 53.0 60.0 53.0 C61.0 53.0 61.0 52.0 61.0 52.0 C61.0 51.0 61.0 52.0 60.0 52.0 C59.0 52.0 58.0 52.0 57.0 51.0 C56.0 50.0 56.0 49.0 56.0 48.0 C56.0 48.0 56.0 48.0 56.0 48.0 C57.0 48.0 58.0 48.0 59.0 47.0 C59.0 46.0 59.0 45.0 59.0 45.0 C58.0 45.0 58.0 44.0 58.0 44.0 C60.0 43.0 61.0 44.0 62.0 45.0 C64.0 47.0 64.0 48.0 64.0 49.0 C65.0 48.0 65.0 48.0 64.0 47.0 C64.0 47.0 64.0 47.0 64.0 46.0 C65.0 46.0 65.0 47.0 66.0 47.0 C66.0 46.0 65.0 46.0 65.0 46.0 C65.0 46.0 65.0 46.0 65.0 45.0 C65.0 45.0 65.0 45.0 65.0 45.0 C65.0 43.0 66.0 41.0 65.0 41.0 C65.0 42.0 65.0 42.0 64.0 43.0 C64.0 44.0 64.0 45.0 64.0 45.0 C63.0 45.0 63.0 44.0 63.0 44.0 C62.0 43.0 61.0 42.0 58.0 43.0 C58.0 40.0 60.0 39.0 61.0 38.0 C66.0 35.0 69.0 43.0 66.0 50.0 C65.0 52.0 66.0 52.0 66.0 52.0 C66.0 52.0 67.0 52.0 67.0 52.0 C68.0 56.0 68.0 63.0 68.0 68.0 C68.0 69.0 66.0 71.0 65.0 74.0 C64.0 78.0 65.0 80.0 66.0 82.0 C67.0 82.0 67.0 83.0 67.0 84.0 C66.0 91.0 67.0 98.0 69.0 105.0 C70.0 105.0 71.0 107.0 71.0 107.0 C71.0 107.0 71.0 107.0 71.0 107.0 C71.0 108.0 71.0 108.0 70.0 108.0 C70.0 108.0 67.0 111.0 65.0 113.0 C63.0 115.0 62.0 117.0 62.0 118.0 C60.0 119.0 61.0 119.0 60.0 120.0 C60.0 120.0 60.0 120.0 60.0 120.0 C60.0 120.0 60.0 120.0 60.0 121.0 Z L62.0 121.0 Z"></path>
<path fill="#6699cc" fill_opacity="0.0" stroke="none" stroke-width="1.0" stroke-opacity="1.0"  filling="0" d="M0.0 0.0 M1.0 0.0 M1.0 0.0 M90.0 59.0 L91.0 60.0 C91.0 60.0 91.0 60.0 91.0 60.0 C91.0 60.0 91.0 60.0 91.0 60.0 C91.0 60.0 92.0 60.0 92.0 60.0 C92.0 60.0 92.0 60.0 92.0 60.0 C92.0 60.0 93.0 59.0 93.0 58.0 C93.0 57.0 94.0 56.0 94.0 55.0 C94.0 52.0 92.0 51.0 89.0 51.0 C91.0 50.0 95.0 49.0 96.0 53.0 C96.0 54.0 96.0 54.0 97.0 54.0 C97.0 53.0 97.0 53.0 97.0 52.0 C97.0 52.0 97.0 52.0 97.0 52.0 C100.0 50.0 108.0 53.0 111.0 54.0 C113.0 55.0 115.0 56.0 117.0 57.0 C119.0 59.0 119.0 59.0 121.0 60.0 C121.0 61.0 121.0 61.0 121.0 61.0 C121.0 61.0 121.0 61.0 122.0 61.0 C122.0 60.0 121.0 59.0 120.0 58.0 C118.0 57.0 117.0 56.0 117.0 55.0 C119.0 55.0 122.0 58.0 123.0 60.0 C123.0 61.0 123.0 62.0 124.0 62.0 C124.0 62.0 124.0 60.0 123.0 59.0 C122.0 58.0 122.0 56.0 122.0 55.0 C122.0 55.0 122.0 55.0 122.0 55.0 C122.0 55.0 122.0 55.0 123.0 55.0 C123.0 55.0 123.0 55.0 123.0 56.0 C124.0 56.0 125.0 59.0 125.0 60.0 C125.0 61.0 125.0 61.0 125.0 61.0 C125.0 62.0 125.0 63.0 125.0 63.0 C126.0 63.0 126.0 62.0 126.0 61.0 C127.0 60.0 128.0 60.0 129.0 61.0 C129.0 61.0 129.0 62.0 129.0 62.0 C128.0 62.0 128.0 63.0 127.0 64.0 C127.0 64.0 127.0 64.0 127.0 64.0 C126.0 64.0 125.0 64.0 125.0 64.0 L125.0 65.0 C125.0 65.0 126.0 65.0 127.0 65.0 C127.0 65.0 127.0 65.0 127.0 65.0 C132.0 65.0 134.0 72.0 134.0 76.0 C134.0 75.0 133.0 74.0 133.0 73.0 C133.0 72.0 132.0 71.0 131.0 70.0 C128.0 66.0 123.0 66.0 119.0 68.0 C118.0 68.0 114.0 70.0 114.0 71.0 L115.0 71.0 C115.0 71.0 115.0 71.0 115.0 71.0 C115.0 71.0 114.0 71.0 113.0 72.0 C111.0 74.0 107.0 78.0 105.0 80.0 C105.0 81.0 105.0 81.0 104.0 82.0 C104.0 82.0 104.0 82.0 104.0 83.0 C103.0 83.0 103.0 85.0 103.0 86.0 C102.0 89.0 105.0 94.0 107.0 97.0 C111.0 100.0 117.0 103.0 123.0 100.0 C126.0 99.0 129.0 97.0 130.0 94.0 C131.0 93.0 131.0 93.0 131.0 92.0 C132.0 91.0 132.0 91.0 133.0 90.0 C133.0 90.0 133.0 90.0 133.0 90.0 C133.0 90.0 133.0 90.0 133.0 89.0 C133.0 89.0 133.0 89.0 134.0 89.0 C134.0 90.0 134.0 90.0 134.0 90.0 C133.0 92.0 132.0 98.0 130.0 100.0 C130.0 101.0 126.0 103.0 124.0 106.0 C124.0 106.0 124.0 106.0 123.0 106.0 C123.0 107.0 123.0 107.0 123.0 107.0 C124.0 108.0 124.0 107.0 125.0 106.0 C125.0 106.0 126.0 105.0 126.0 105.0 C129.0 101.0 137.0 97.0 142.0 95.0 C143.0 94.0 144.0 94.0 145.0 93.0 C146.0 93.0 148.0 91.0 148.0 91.0 C147.0 95.0 141.0 101.0 138.0 103.0 C134.0 107.0 129.0 108.0 123.0 109.0 C123.0 109.0 123.0 109.0 123.0 109.0 C122.0 109.0 121.0 108.0 121.0 109.0 C122.0 109.0 122.0 110.0 123.0 110.0 C123.0 110.0 124.0 110.0 124.0 110.0 C126.0 110.0 132.0 114.0 134.0 116.0 C135.0 116.0 138.0 118.0 138.0 119.0 C135.0 119.0 131.0 118.0 128.0 117.0 C127.0 116.0 124.0 116.0 123.0 115.0 C122.0 114.0 121.0 113.0 121.0 112.0 C120.0 111.0 120.0 111.0 120.0 111.0 C120.0 111.0 120.0 111.0 120.0 111.0 C120.0 111.0 120.0 111.0 120.0 111.0 C120.0 111.0 120.0 111.0 120.0 111.0 C120.0 111.0 120.0 112.0 120.0 112.0 C120.0 112.0 120.0 112.0 120.0 112.0 C120.0 112.0 120.0 113.0 120.0 113.0 C118.0 114.0 115.0 115.0 113.0 116.0 C113.0 115.0 113.0 115.0 113.0 115.0 C113.0 113.0 112.0 113.0 111.0 113.0 C111.0 114.0 110.0 114.0 110.0 114.0 C110.0 114.0 110.0 114.0 110.0 114.0 C110.0 114.0 110.0 114.0 110.0 113.0 C110.0 113.0 110.0 113.0 111.0 113.0 L114.0 112.0 C114.0 112.0 116.0 111.0 117.0 111.0 C117.0 111.0 117.0 111.0 118.0 111.0 C118.0 112.0 118.0 112.0 119.0 112.0 C119.0 110.0 115.0 105.0 113.0 106.0 C113.0 107.0 115.0 107.0 115.0 108.0 C111.0 108.0 103.0 100.0 98.0 95.0 C96.0 93.0 95.0 92.0 94.0 91.0 C92.0 90.0 90.0 88.0 88.0 87.0 C86.0 86.0 84.0 85.0 81.0 84.0 C78.0 83.0 69.0 82.0 67.0 81.0 C66.0 80.0 66.0 80.0 66.0 80.0 C66.0 80.0 66.0 80.0 65.0 80.0 C65.0 81.0 66.0 81.0 66.0 81.0 C67.0 81.0 67.0 82.0 67.0 82.0 C68.0 82.0 68.0 84.0 68.0 85.0 C69.0 86.0 69.0 86.0 69.0 87.0 C69.0 87.0 68.0 88.0 68.0 88.0 C68.0 90.0 68.0 91.0 69.0 93.0 L68.0 92.0 C68.0 92.0 68.0 91.0 68.0 90.0 C68.0 90.0 68.0 89.0 68.0 89.0 C67.0 89.0 67.0 90.0 66.0 90.0 C66.0 90.0 66.0 90.0 66.0 90.0 L68.0 92.0 C67.0 92.0 68.0 85.0 68.0 84.0 C68.0 84.0 68.0 84.0 68.0 84.0 C69.0 85.0 69.0 85.0 69.0 85.0 C69.0 84.0 69.0 84.0 69.0 84.0 C69.0 83.0 69.0 83.0 69.0 83.0 C66.0 81.0 65.0 78.0 66.0 74.0 C66.0 74.0 66.0 74.0 66.0 73.0 C67.0 73.0 67.0 73.0 67.0 73.0 L68.0 74.0 C70.0 78.0 73.0 78.0 77.0 77.0 C79.0 77.0 80.0 76.0 81.0 76.0 L81.0 74.0 C81.0 74.0 81.0 74.0 81.0 74.0 C81.0 74.0 81.0 74.0 81.0 74.0 C81.0 74.0 81.0 75.0 81.0 75.0 C81.0 75.0 81.0 76.0 81.0 76.0 C81.0 78.0 82.0 80.0 83.0 81.0 C86.0 87.0 97.0 88.0 102.0 83.0 C108.0 78.0 106.0 70.0 97.0 64.0 C94.0 63.0 92.0 63.0 89.0 63.0 C90.0 62.0 90.0 62.0 91.0 61.0 C91.0 61.0 91.0 61.0 91.0 60.0 C91.0 60.0 91.0 60.0 91.0 60.0 L91.0 59.0 Z L90.0 59.0 Z M1.0 0.0 M90.0 59.0 M90.0 59.0 M100.0 64.0 C105.0 69.0 105.0 70.0 106.0 70.0 C107.0 67.0 95.0 62.0 94.0 63.0 C96.0 64.0 98.0 64.0 101.0 66.0 Z L100.0 64.0 Z M90.0 59.0 M100.0 64.0 M100.0 64.0 M105.0 64.0 C103.0 63.0 101.0 62.0 100.0 62.0 C98.0 64.0 99.0 63.0 104.0 67.0 C104.0 67.0 104.0 67.0 104.0 67.0 C104.0 67.0 104.0 67.0 105.0 67.0 C107.0 66.0 105.0 65.0 104.0 64.0 C104.0 64.0 104.0 64.0 104.0 64.0 Z L105.0 64.0 Z M100.0 64.0 M105.0 64.0 M105.0 64.0 M135.0 89.0 C134.0 89.0 134.0 89.0 134.0 89.0 C134.0 89.0 134.0 89.0 134.0 89.0 Z L135.0 89.0 Z M105.0 64.0 M135.0 89.0 M135.0 89.0 M81.0 72.0 C81.0 72.0 81.0 72.0 81.0 72.0 C81.0 72.0 81.0 72.0 81.0 72.0 Z L81.0 72.0 Z"></path>
<path fill="#ddaacc" fill_opacity="0.0" stroke="none" stroke-width="1.0" stroke-opacity="1.0"  filling="0" d="M0.0 0.0 M1.0 0.0 M1.0 0.0 M139.0 121.0 C139.0 120.0 137.0 119.0 136.0 118.0 C134.0 116.0 132.0 115.0 130.0 113.0 C129.0 113.0 127.0 112.0 126.0 111.0 C127.0 111.0 128.0 111.0 131.0 111.0 C132.0 110.0 133.0 109.0 134.0 108.0 C136.0 107.0 136.0 107.0 138.0 106.0 C142.0 102.0 146.0 95.0 149.0 90.0 C152.0 85.0 155.0 80.0 159.0 76.0 L162.0 73.0 C163.0 72.0 164.0 71.0 165.0 70.0 C168.0 67.0 170.0 67.0 171.0 71.0 C175.0 76.0 176.0 83.0 174.0 89.0 C173.0 94.0 168.0 103.0 165.0 106.0 C162.0 110.0 158.0 114.0 153.0 117.0 C153.0 117.0 152.0 117.0 152.0 117.0 C151.0 117.0 149.0 119.0 149.0 118.0 C148.0 118.0 147.0 118.0 147.0 117.0 C143.0 115.0 143.0 115.0 142.0 116.0 C142.0 117.0 142.0 117.0 142.0 117.0 C141.0 118.0 140.0 120.0 139.0 121.0 Z L139.0 121.0 Z"></path>
<path fill="#88ccff" fill_opacity="0.0" stroke="none" stroke-width="1.0" stroke-opacity="1.0"  filling="0" d="M0.0 0.0 M1.0 0.0 M1.0 0.0 M63.0 119.0 C60.0 120.0 60.0 120.0 60.0 120.0 C60.0 120.0 60.0 120.0 60.0 120.0 C61.0 119.0 60.0 119.0 62.0 118.0 C62.0 117.0 63.0 115.0 65.0 113.0 C67.0 111.0 70.0 108.0 70.0 108.0 C71.0 108.0 71.0 108.0 71.0 107.0 C71.0 107.0 71.0 107.0 71.0 107.0 C71.0 107.0 71.0 107.0 71.0 107.0 C71.0 107.0 71.0 107.0 71.0 107.0 C72.0 108.0 74.0 110.0 75.0 111.0 C79.0 114.0 83.0 116.0 88.0 118.0 C89.0 118.0 90.0 118.0 91.0 118.0 C91.0 119.0 91.0 118.0 91.0 119.0 C91.0 119.0 91.0 119.0 92.0 119.0 C92.0 119.0 92.0 119.0 92.0 119.0 C92.0 120.0 91.0 121.0 91.0 122.0 C90.0 123.0 90.0 125.0 89.0 125.0 L89.0 126.0 C88.0 126.0 88.0 126.0 88.0 125.0 C87.0 124.0 86.0 123.0 83.0 124.0 C82.0 124.0 81.0 124.0 81.0 125.0 C80.0 127.0 80.0 126.0 79.0 127.0 C78.0 127.0 77.0 128.0 77.0 129.0 C77.0 131.0 77.0 130.0 76.0 132.0 C74.0 134.0 78.0 137.0 79.0 140.0 L80.0 140.0 C81.0 142.0 81.0 148.0 90.0 153.0 C90.0 153.0 92.0 153.0 93.0 154.0 L93.0 154.0 C93.0 154.0 93.0 154.0 94.0 154.0 C94.0 155.0 94.0 155.0 94.0 156.0 C95.0 157.0 95.0 157.0 95.0 158.0 L96.0 159.0 C89.0 159.0 73.0 159.0 65.0 157.0 C64.0 157.0 62.0 157.0 61.0 156.0 C62.0 154.0 62.0 151.0 62.0 148.0 C62.0 146.0 61.0 145.0 62.0 144.0 C62.0 143.0 62.0 143.0 62.0 143.0 C62.0 142.0 61.0 141.0 61.0 139.0 C60.0 134.0 60.0 125.0 62.0 121.0 Z L63.0 119.0 Z M1.0 0.0 M63.0 119.0 M63.0 119.0 M67.0 123.0 C67.0 122.0 73.0 121.0 73.0 120.0 C73.0 119.0 72.0 120.0 71.0 120.0 C71.0 120.0 71.0 120.0 71.0 120.0 C71.0 120.0 70.0 121.0 70.0 121.0 C68.0 121.0 64.0 123.0 66.0 124.0 C67.0 125.0 67.0 125.0 68.0 125.0 C68.0 126.0 67.0 127.0 67.0 128.0 C66.0 128.0 66.0 130.0 66.0 131.0 C67.0 131.0 67.0 131.0 67.0 131.0 C67.0 131.0 68.0 130.0 68.0 130.0 C68.0 131.0 68.0 131.0 68.0 131.0 C68.0 133.0 68.0 134.0 68.0 135.0 L70.0 135.0 C70.0 135.0 70.0 136.0 70.0 136.0 C70.0 137.0 70.0 138.0 71.0 138.0 C71.0 138.0 71.0 138.0 71.0 138.0 C71.0 138.0 71.0 138.0 71.0 138.0 L71.0 137.0 C71.0 136.0 71.0 136.0 71.0 136.0 C71.0 136.0 71.0 136.0 71.0 135.0 C71.0 135.0 70.0 134.0 71.0 134.0 C71.0 133.0 71.0 133.0 71.0 132.0 C71.0 132.0 72.0 131.0 71.0 130.0 C70.0 130.0 70.0 133.0 69.0 134.0 C69.0 133.0 69.0 133.0 69.0 133.0 C69.0 132.0 69.0 132.0 69.0 132.0 L69.0 132.0 C69.0 128.0 72.0 129.0 72.0 127.0 C71.0 127.0 70.0 128.0 69.0 129.0 C68.0 129.0 68.0 130.0 67.0 130.0 C67.0 128.0 68.0 127.0 69.0 126.0 C70.0 125.0 70.0 125.0 71.0 125.0 C72.0 125.0 73.0 125.0 73.0 124.0 C72.0 124.0 72.0 124.0 71.0 124.0 C70.0 124.0 67.0 125.0 67.0 123.0 Z L67.0 123.0 Z"></path>
<path fill="#000000" fill_opacity="0.0" stroke="none" stroke-width="1.0" stroke-opacity="1.0"  filling="0" d="M0.0 0.0 M1.0 0.0 M1.0 0.0 M62.0 158.0 C60.0 157.0 60.0 155.0 61.0 152.0 C61.0 151.0 61.0 151.0 61.0 151.0 C59.0 147.0 59.0 141.0 60.0 137.0 C58.0 129.0 61.0 122.0 61.0 119.0 C61.0 118.0 61.0 117.0 61.0 117.0 C61.0 109.0 57.0 97.0 53.0 91.0 C52.0 89.0 51.0 88.0 49.0 87.0 C42.0 74.0 46.0 62.0 46.0 57.0 C47.0 56.0 47.0 55.0 47.0 55.0 C46.0 54.0 46.0 54.0 45.0 52.0 C45.0 51.0 45.0 50.0 45.0 50.0 C45.0 49.0 45.0 49.0 44.0 48.0 C41.0 44.0 45.0 38.0 49.0 38.0 C50.0 38.0 51.0 38.0 51.0 38.0 C51.0 38.0 51.0 38.0 52.0 38.0 C53.0 36.0 57.0 34.0 59.0 38.0 C59.0 38.0 60.0 38.0 60.0 38.0 C61.0 37.0 62.0 36.0 63.0 36.0 C68.0 36.0 69.0 43.0 68.0 47.0 C68.0 48.0 68.0 48.0 68.0 49.0 C67.0 50.0 67.0 50.0 68.0 52.0 C69.0 57.0 69.0 62.0 69.0 67.0 C70.0 67.0 70.0 65.0 71.0 65.0 C72.0 64.0 72.0 64.0 72.0 63.0 C72.0 62.0 72.0 62.0 72.0 62.0 C72.0 55.0 75.0 48.0 78.0 43.0 C82.0 36.0 88.0 31.0 97.0 28.0 C97.0 28.0 97.0 28.0 97.0 28.0 C102.0 27.0 106.0 26.0 111.0 26.0 C113.0 26.0 115.0 26.0 114.0 28.0 C114.0 29.0 111.0 32.0 110.0 33.0 C110.0 33.0 107.0 36.0 106.0 37.0 C104.0 39.0 102.0 44.0 100.0 47.0 C99.0 48.0 99.0 49.0 98.0 50.0 C98.0 51.0 97.0 52.0 97.0 52.0 C102.0 51.0 109.0 53.0 114.0 56.0 C115.0 56.0 115.0 56.0 116.0 57.0 C116.0 55.0 117.0 55.0 119.0 55.0 C120.0 56.0 120.0 57.0 121.0 57.0 C121.0 57.0 121.0 57.0 121.0 57.0 C121.0 56.0 121.0 56.0 122.0 55.0 C123.0 55.0 124.0 57.0 125.0 57.0 C126.0 59.0 126.0 60.0 126.0 61.0 C126.0 61.0 126.0 61.0 127.0 61.0 C127.0 61.0 128.0 60.0 128.0 61.0 C129.0 61.0 130.0 61.0 130.0 62.0 C130.0 62.0 130.0 63.0 129.0 64.0 C129.0 64.0 128.0 64.0 128.0 65.0 C133.0 67.0 134.0 70.0 135.0 75.0 C135.0 78.0 135.0 83.0 135.0 86.0 C135.0 90.0 134.0 92.0 133.0 96.0 C133.0 97.0 132.0 99.0 132.0 100.0 L138.0 96.0 C141.0 95.0 146.0 93.0 148.0 91.0 C150.0 89.0 150.0 89.0 151.0 88.0 C155.0 80.0 158.0 76.0 164.0 70.0 C165.0 69.0 169.0 68.0 169.0 68.0 C170.0 68.0 171.0 67.0 172.0 68.0 C174.0 74.0 175.0 85.0 175.0 91.0 C173.0 94.0 170.0 100.0 167.0 103.0 C163.0 109.0 157.0 114.0 150.0 119.0 C148.0 120.0 148.0 119.0 147.0 119.0 C146.0 118.0 145.0 117.0 143.0 117.0 C143.0 117.0 141.0 121.0 140.0 122.0 C138.0 122.0 133.0 121.0 132.0 121.0 C124.0 118.0 122.0 115.0 120.0 114.0 C119.0 114.0 117.0 115.0 115.0 116.0 C114.0 116.0 111.0 117.0 110.0 118.0 C110.0 119.0 111.0 119.0 112.0 122.0 C112.0 123.0 112.0 124.0 112.0 125.0 C112.0 126.0 112.0 127.0 113.0 128.0 C113.0 129.0 113.0 129.0 113.0 130.0 C114.0 133.0 115.0 135.0 114.0 138.0 C114.0 140.0 114.0 142.0 113.0 144.0 C113.0 146.0 112.0 146.0 111.0 148.0 C111.0 148.0 111.0 149.0 111.0 149.0 C111.0 149.0 112.0 150.0 112.0 150.0 L114.0 154.0 C114.0 154.0 114.0 154.0 114.0 155.0 C114.0 155.0 115.0 156.0 115.0 156.0 L114.0 156.0 C113.0 155.0 113.0 154.0 112.0 153.0 C112.0 152.0 110.0 149.0 110.0 149.0 C109.0 150.0 108.0 150.0 103.0 152.0 C99.0 153.0 97.0 152.0 94.0 152.0 C94.0 152.0 93.0 152.0 93.0 153.0 C92.0 153.0 90.0 153.0 90.0 153.0 C81.0 148.0 81.0 142.0 80.0 140.0 L79.0 140.0 C78.0 137.0 74.0 134.0 76.0 132.0 C77.0 130.0 77.0 131.0 77.0 129.0 C77.0 128.0 78.0 127.0 79.0 127.0 C80.0 126.0 80.0 127.0 81.0 125.0 C81.0 124.0 82.0 124.0 83.0 124.0 C86.0 123.0 87.0 124.0 88.0 125.0 C88.0 126.0 88.0 126.0 89.0 126.0 C91.0 126.0 91.0 126.0 92.0 126.0 C92.0 127.0 92.0 127.0 93.0 127.0 C93.0 127.0 93.0 127.0 93.0 126.0 C93.0 125.0 93.0 125.0 94.0 125.0 C94.0 125.0 94.0 126.0 94.0 126.0 C94.0 127.0 93.0 127.0 93.0 128.0 C93.0 128.0 94.0 129.0 94.0 131.0 C95.0 131.0 96.0 131.0 96.0 131.0 C98.0 131.0 99.0 131.0 101.0 133.0 C102.0 134.0 105.0 136.0 105.0 138.0 C103.0 138.0 104.0 132.0 99.0 132.0 C96.0 132.0 96.0 133.0 96.0 133.0 C96.0 133.0 96.0 134.0 95.0 133.0 C95.0 133.0 95.0 132.0 95.0 132.0 C95.0 131.0 95.0 130.0 94.0 129.0 C94.0 127.0 93.0 127.0 91.0 127.0 C91.0 128.0 91.0 128.0 91.0 128.0 C91.0 128.0 92.0 128.0 92.0 129.0 C91.0 129.0 91.0 129.0 90.0 129.0 C90.0 130.0 90.0 130.0 90.0 130.0 C91.0 130.0 91.0 130.0 91.0 131.0 C90.0 131.0 90.0 131.0 90.0 131.0 C90.0 131.0 90.0 130.0 90.0 130.0 C89.0 129.0 88.0 129.0 88.0 128.0 C88.0 128.0 88.0 128.0 89.0 128.0 C89.0 128.0 89.0 128.0 90.0 128.0 C90.0 127.0 89.0 126.0 89.0 125.0 C87.0 124.0 84.0 124.0 83.0 127.0 C83.0 127.0 84.0 128.0 84.0 128.0 C84.0 130.0 84.0 131.0 83.0 130.0 C83.0 130.0 83.0 130.0 83.0 129.0 C83.0 129.0 83.0 128.0 82.0 127.0 C81.0 127.0 80.0 129.0 80.0 130.0 C80.0 131.0 80.0 131.0 80.0 132.0 C81.0 133.0 81.0 133.0 81.0 134.0 C80.0 134.0 80.0 134.0 80.0 133.0 C79.0 133.0 79.0 132.0 79.0 132.0 C78.0 132.0 78.0 133.0 78.0 134.0 C78.0 136.0 79.0 138.0 80.0 139.0 C82.0 142.0 82.0 146.0 88.0 150.0 C99.0 159.0 117.0 150.0 113.0 132.0 C113.0 132.0 112.0 131.0 112.0 130.0 C112.0 129.0 112.0 128.0 112.0 126.0 C112.0 122.0 110.0 117.0 106.0 117.0 C104.0 117.0 102.0 118.0 101.0 119.0 C100.0 119.0 99.0 120.0 99.0 121.0 C98.0 121.0 97.0 122.0 97.0 122.0 C96.0 122.0 97.0 121.0 98.0 120.0 C98.0 120.0 99.0 119.0 99.0 119.0 C98.0 119.0 97.0 119.0 96.0 119.0 C95.0 119.0 94.0 118.0 93.0 118.0 C92.0 118.0 91.0 118.0 91.0 118.0 C90.0 118.0 89.0 118.0 88.0 118.0 C83.0 116.0 79.0 114.0 75.0 111.0 C74.0 110.0 72.0 108.0 71.0 107.0 C71.0 107.0 71.0 107.0 71.0 107.0 C71.0 107.0 70.0 105.0 69.0 105.0 C67.0 98.0 66.0 91.0 67.0 84.0 C67.0 83.0 67.0 82.0 66.0 82.0 C65.0 80.0 64.0 78.0 65.0 74.0 C66.0 71.0 68.0 69.0 68.0 68.0 C68.0 63.0 68.0 56.0 67.0 52.0 C67.0 52.0 66.0 52.0 66.0 52.0 C66.0 52.0 65.0 52.0 66.0 50.0 C69.0 43.0 66.0 35.0 61.0 38.0 C60.0 39.0 58.0 40.0 58.0 43.0 C61.0 42.0 62.0 43.0 63.0 44.0 C63.0 44.0 63.0 45.0 64.0 45.0 C64.0 45.0 64.0 44.0 64.0 43.0 C65.0 42.0 65.0 42.0 65.0 41.0 C66.0 41.0 65.0 43.0 65.0 45.0 C65.0 45.0 65.0 45.0 65.0 45.0 C65.0 46.0 65.0 46.0 65.0 46.0 C65.0 46.0 66.0 46.0 66.0 47.0 C65.0 47.0 65.0 46.0 64.0 46.0 C64.0 47.0 64.0 47.0 64.0 47.0 C65.0 48.0 65.0 48.0 64.0 49.0 C64.0 48.0 64.0 47.0 62.0 45.0 C61.0 44.0 60.0 43.0 58.0 44.0 C58.0 44.0 58.0 45.0 59.0 45.0 C59.0 45.0 59.0 46.0 59.0 47.0 C58.0 48.0 57.0 48.0 56.0 48.0 C56.0 48.0 56.0 48.0 56.0 48.0 C56.0 49.0 56.0 50.0 57.0 51.0 C58.0 52.0 59.0 52.0 60.0 52.0 C61.0 52.0 61.0 51.0 61.0 52.0 C61.0 52.0 61.0 53.0 60.0 53.0 C60.0 53.0 60.0 53.0 60.0 53.0 C59.0 53.0 59.0 53.0 58.0 53.0 C58.0 52.0 58.0 52.0 57.0 52.0 C58.0 54.0 60.0 55.0 60.0 56.0 C60.0 56.0 60.0 56.0 60.0 56.0 C60.0 56.0 60.0 56.0 60.0 56.0 C60.0 56.0 60.0 56.0 60.0 56.0 C60.0 56.0 60.0 56.0 60.0 56.0 C59.0 56.0 58.0 55.0 58.0 54.0 C57.0 54.0 57.0 54.0 56.0 53.0 C56.0 53.0 56.0 52.0 56.0 51.0 C56.0 51.0 56.0 51.0 55.0 51.0 C55.0 51.0 53.0 51.0 53.0 48.0 C52.0 48.0 51.0 49.0 51.0 49.0 C51.0 50.0 51.0 50.0 51.0 50.0 C51.0 50.0 51.0 51.0 51.0 51.0 C51.0 53.0 50.0 52.0 49.0 51.0 C48.0 51.0 48.0 51.0 48.0 51.0 C48.0 50.0 47.0 49.0 46.0 49.0 C46.0 51.0 47.0 54.0 49.0 55.0 C50.0 56.0 51.0 55.0 51.0 56.0 C50.0 57.0 50.0 56.0 49.0 56.0 C49.0 56.0 49.0 56.0 48.0 56.0 C47.0 57.0 46.0 61.0 45.0 63.0 C46.0 65.0 45.0 70.0 46.0 71.0 C44.0 77.0 47.0 82.0 50.0 85.0 C55.0 91.0 56.0 93.0 58.0 99.0 C60.0 102.0 61.0 107.0 61.0 111.0 C62.0 112.0 62.0 114.0 62.0 115.0 C62.0 115.0 63.0 114.0 63.0 113.0 C64.0 112.0 65.0 109.0 66.0 110.0 C66.0 111.0 65.0 111.0 65.0 112.0 C65.0 112.0 65.0 112.0 65.0 112.0 C63.0 115.0 62.0 118.0 62.0 121.0 C60.0 125.0 60.0 134.0 61.0 139.0 C61.0 141.0 62.0 142.0 62.0 143.0 C62.0 143.0 62.0 143.0 62.0 144.0 C61.0 145.0 62.0 146.0 62.0 148.0 C62.0 151.0 62.0 154.0 61.0 156.0 Z L62.0 158.0 Z M1.0 0.0 M62.0 158.0 M62.0 158.0 M116.0 75.0 L114.0 71.0 C114.0 70.0 118.0 68.0 119.0 68.0 C123.0 66.0 128.0 66.0 131.0 70.0 C132.0 71.0 133.0 72.0 133.0 73.0 C133.0 74.0 134.0 75.0 134.0 76.0 C134.0 72.0 132.0 65.0 127.0 65.0 C127.0 65.0 127.0 65.0 127.0 65.0 C126.0 65.0 125.0 65.0 125.0 65.0 L125.0 64.0 C125.0 64.0 126.0 64.0 127.0 64.0 C127.0 64.0 127.0 64.0 127.0 64.0 C128.0 63.0 128.0 62.0 129.0 62.0 C129.0 62.0 129.0 61.0 129.0 61.0 C128.0 60.0 127.0 60.0 126.0 61.0 C126.0 62.0 126.0 63.0 125.0 63.0 C125.0 63.0 125.0 62.0 125.0 61.0 C125.0 61.0 125.0 61.0 125.0 60.0 C125.0 59.0 124.0 56.0 123.0 56.0 C123.0 55.0 123.0 55.0 123.0 55.0 C122.0 55.0 122.0 55.0 122.0 55.0 C122.0 55.0 122.0 55.0 122.0 55.0 C122.0 56.0 122.0 58.0 123.0 59.0 C124.0 60.0 124.0 62.0 124.0 62.0 C123.0 62.0 123.0 61.0 123.0 60.0 C122.0 58.0 119.0 55.0 117.0 55.0 C117.0 56.0 118.0 57.0 120.0 58.0 C121.0 59.0 122.0 60.0 122.0 61.0 C121.0 61.0 121.0 61.0 121.0 61.0 C121.0 61.0 121.0 61.0 121.0 60.0 C119.0 59.0 119.0 59.0 117.0 57.0 C115.0 56.0 113.0 55.0 111.0 54.0 C108.0 53.0 100.0 50.0 97.0 52.0 C97.0 52.0 97.0 52.0 97.0 52.0 C97.0 53.0 97.0 53.0 97.0 54.0 C96.0 54.0 96.0 54.0 96.0 53.0 C95.0 49.0 91.0 50.0 89.0 51.0 C92.0 51.0 94.0 52.0 94.0 55.0 C94.0 56.0 93.0 57.0 93.0 58.0 C93.0 59.0 92.0 60.0 92.0 60.0 C92.0 60.0 92.0 60.0 92.0 60.0 C92.0 60.0 91.0 60.0 91.0 60.0 C91.0 60.0 91.0 60.0 91.0 60.0 C91.0 60.0 91.0 60.0 91.0 60.0 L91.0 59.0 C91.0 59.0 92.0 58.0 92.0 57.0 C95.0 51.0 90.0 50.0 82.0 55.0 C81.0 55.0 80.0 56.0 80.0 56.0 L77.0 60.0 C77.0 60.0 77.0 60.0 77.0 60.0 C77.0 60.0 77.0 60.0 78.0 60.0 L77.0 61.0 C76.0 61.0 76.0 62.0 75.0 62.0 C75.0 62.0 75.0 62.0 75.0 62.0 C75.0 62.0 74.0 62.0 74.0 63.0 C72.0 65.0 72.0 65.0 70.0 67.0 C70.0 68.0 67.0 71.0 67.0 73.0 C67.0 73.0 67.0 73.0 66.0 73.0 C66.0 74.0 66.0 74.0 66.0 74.0 C65.0 78.0 66.0 81.0 69.0 83.0 C69.0 83.0 69.0 83.0 69.0 84.0 C69.0 84.0 69.0 84.0 69.0 85.0 C69.0 85.0 69.0 85.0 68.0 84.0 C68.0 84.0 68.0 84.0 68.0 84.0 C68.0 85.0 67.0 92.0 68.0 92.0 C68.0 94.0 69.0 98.0 70.0 100.0 C71.0 103.0 73.0 106.0 75.0 108.0 C77.0 110.0 81.0 113.0 83.0 114.0 C88.0 117.0 92.0 118.0 98.0 118.0 C100.0 118.0 100.0 118.0 101.0 117.0 C101.0 117.0 101.0 117.0 102.0 117.0 C103.0 116.0 104.0 116.0 106.0 116.0 C106.0 116.0 107.0 116.0 108.0 116.0 C108.0 117.0 109.0 117.0 110.0 117.0 C111.0 116.0 113.0 116.0 113.0 116.0 C115.0 115.0 118.0 114.0 120.0 113.0 C120.0 113.0 120.0 112.0 120.0 112.0 C120.0 112.0 120.0 112.0 120.0 112.0 C120.0 112.0 120.0 111.0 120.0 111.0 C120.0 111.0 120.0 111.0 120.0 111.0 C120.0 111.0 120.0 111.0 120.0 111.0 C120.0 111.0 120.0 111.0 120.0 111.0 C120.0 111.0 120.0 111.0 121.0 112.0 C121.0 113.0 122.0 114.0 123.0 115.0 C124.0 116.0 127.0 116.0 128.0 117.0 C131.0 118.0 135.0 119.0 138.0 119.0 C138.0 118.0 135.0 116.0 134.0 116.0 C132.0 114.0 126.0 110.0 124.0 110.0 C124.0 110.0 123.0 110.0 123.0 110.0 C122.0 110.0 122.0 109.0 121.0 109.0 C121.0 108.0 122.0 109.0 123.0 109.0 C123.0 109.0 123.0 109.0 123.0 109.0 C129.0 108.0 134.0 107.0 138.0 103.0 C141.0 101.0 147.0 95.0 148.0 91.0 C148.0 91.0 146.0 93.0 145.0 93.0 C144.0 94.0 143.0 94.0 142.0 95.0 C137.0 97.0 129.0 101.0 126.0 105.0 C126.0 105.0 125.0 106.0 125.0 106.0 C124.0 107.0 124.0 108.0 123.0 107.0 C123.0 107.0 123.0 107.0 123.0 106.0 C124.0 106.0 124.0 106.0 124.0 106.0 C126.0 103.0 130.0 101.0 130.0 100.0 C132.0 98.0 133.0 92.0 134.0 90.0 C134.0 89.0 134.0 88.0 134.0 87.0 C135.0 83.0 134.0 76.0 131.0 72.0 C127.0 66.0 120.0 68.0 115.0 71.0 Z L116.0 75.0 Z M62.0 158.0 M116.0 75.0 M116.0 75.0 M140.0 121.0 C140.0 120.0 141.0 118.0 142.0 117.0 C142.0 117.0 142.0 117.0 142.0 116.0 C143.0 115.0 143.0 115.0 147.0 117.0 C147.0 118.0 148.0 118.0 149.0 118.0 C149.0 119.0 151.0 117.0 152.0 117.0 C152.0 117.0 153.0 117.0 153.0 117.0 C158.0 114.0 162.0 110.0 165.0 106.0 C168.0 103.0 173.0 94.0 174.0 89.0 C176.0 83.0 175.0 76.0 171.0 71.0 C170.0 67.0 168.0 67.0 165.0 70.0 C164.0 71.0 163.0 72.0 162.0 73.0 L159.0 76.0 C155.0 80.0 152.0 85.0 149.0 90.0 C146.0 95.0 142.0 102.0 138.0 106.0 C136.0 107.0 136.0 107.0 134.0 108.0 C133.0 109.0 132.0 110.0 131.0 111.0 C128.0 111.0 127.0 111.0 126.0 111.0 C127.0 112.0 129.0 113.0 130.0 113.0 C132.0 115.0 134.0 116.0 136.0 118.0 C137.0 119.0 139.0 120.0 139.0 121.0 Z L140.0 121.0 Z M116.0 75.0 M140.0 121.0 M140.0 121.0 M109.0 35.0 C108.0 35.0 109.0 34.0 110.0 34.0 C111.0 32.0 113.0 29.0 113.0 27.0 C111.0 26.0 108.0 26.0 105.0 27.0 C105.0 27.0 105.0 27.0 104.0 27.0 C104.0 27.0 103.0 27.0 103.0 27.0 C100.0 27.0 94.0 30.0 92.0 31.0 C87.0 34.0 82.0 39.0 79.0 43.0 C78.0 45.0 77.0 47.0 76.0 49.0 C75.0 52.0 73.0 59.0 73.0 63.0 C73.0 63.0 76.0 60.0 77.0 59.0 C81.0 56.0 89.0 51.0 94.0 52.0 C94.0 52.0 95.0 52.0 95.0 52.0 C97.0 53.0 97.0 54.0 102.0 45.0 C103.0 43.0 104.0 41.0 105.0 39.0 C106.0 37.0 108.0 34.0 108.0 34.0 Z L109.0 35.0 Z M140.0 121.0 M109.0 35.0 M109.0 35.0 M48.0 46.0 C47.0 45.0 47.0 45.0 49.0 45.0 C50.0 45.0 50.0 45.0 50.0 46.0 C50.0 46.0 50.0 46.0 50.0 46.0 C52.0 46.0 51.0 45.0 51.0 44.0 C51.0 43.0 50.0 42.0 51.0 40.0 C51.0 39.0 51.0 39.0 51.0 39.0 C51.0 38.0 51.0 38.0 51.0 37.0 C48.0 38.0 46.0 40.0 45.0 42.0 C44.0 43.0 44.0 44.0 44.0 46.0 C45.0 47.0 46.0 48.0 47.0 48.0 Z L48.0 46.0 Z M109.0 35.0 M48.0 46.0 M48.0 46.0 M53.0 44.0 C53.0 45.0 53.0 45.0 52.0 45.0 C52.0 45.0 52.0 44.0 52.0 44.0 C53.0 43.0 55.0 43.0 56.0 43.0 C56.0 43.0 57.0 43.0 57.0 43.0 C57.0 42.0 57.0 42.0 58.0 41.0 C58.0 40.0 58.0 40.0 58.0 40.0 C58.0 39.0 59.0 39.0 58.0 38.0 C58.0 37.0 56.0 36.0 52.0 37.0 C50.0 40.0 51.0 45.0 52.0 46.0 Z L53.0 44.0 Z M48.0 46.0 M53.0 44.0 M53.0 44.0 M53.0 42.0 C52.0 42.0 52.0 42.0 52.0 43.0 C53.0 43.0 53.0 43.0 54.0 44.0 C54.0 44.0 54.0 44.0 54.0 44.0 C55.0 45.0 55.0 45.0 56.0 44.0 C56.0 42.0 53.0 42.0 52.0 42.0 Z L53.0 42.0 Z M53.0 44.0 M53.0 42.0 M53.0 42.0 M56.0 47.0 C55.0 49.0 55.0 49.0 55.0 48.0 C55.0 48.0 55.0 47.0 55.0 47.0 C55.0 47.0 55.0 47.0 55.0 46.0 C55.0 46.0 55.0 45.0 54.0 45.0 C54.0 45.0 53.0 45.0 53.0 46.0 C53.0 47.0 54.0 49.0 55.0 50.0 Z L56.0 47.0 Z M53.0 42.0 M56.0 47.0 M56.0 47.0 M50.0 49.0 C50.0 49.0 50.0 48.0 50.0 48.0 C50.0 47.0 50.0 47.0 50.0 47.0 C50.0 47.0 50.0 47.0 50.0 47.0 C49.0 46.0 49.0 45.0 48.0 46.0 C47.0 47.0 49.0 49.0 50.0 49.0 Z L50.0 49.0 Z"></path>
<path fill="#6699cc" fill_opacity="0.0" stroke="none" stroke-width="1.0" stroke-opacity="1.0"  filling="0" d="M0.0 0.0 M1.0 0.0 M1.0 0.0 M93.0 118.0 C94.0 118.0 95.0 119.0 96.0 119.0 C97.0 119.0 98.0 119.0 99.0 119.0 C99.0 119.0 98.0 120.0 98.0 120.0 C97.0 121.0 96.0 122.0 97.0 122.0 C97.0 122.0 98.0 121.0 99.0 121.0 C99.0 120.0 100.0 119.0 101.0 119.0 C102.0 118.0 104.0 117.0 106.0 117.0 C110.0 117.0 112.0 122.0 112.0 126.0 C112.0 128.0 112.0 129.0 112.0 130.0 C112.0 131.0 113.0 132.0 113.0 132.0 C117.0 150.0 99.0 159.0 88.0 150.0 C82.0 146.0 82.0 142.0 80.0 139.0 C79.0 138.0 78.0 136.0 78.0 134.0 C78.0 133.0 78.0 132.0 79.0 132.0 C79.0 132.0 79.0 133.0 80.0 133.0 C80.0 134.0 80.0 134.0 81.0 134.0 C81.0 133.0 81.0 133.0 80.0 132.0 C80.0 131.0 80.0 131.0 80.0 130.0 C80.0 129.0 81.0 127.0 82.0 127.0 C83.0 128.0 83.0 129.0 83.0 129.0 C83.0 130.0 83.0 130.0 83.0 130.0 C84.0 131.0 84.0 130.0 84.0 128.0 C84.0 128.0 83.0 127.0 83.0 127.0 C84.0 124.0 87.0 124.0 89.0 125.0 C89.0 126.0 90.0 127.0 90.0 128.0 C89.0 128.0 89.0 128.0 89.0 128.0 C88.0 128.0 88.0 128.0 88.0 128.0 C88.0 129.0 89.0 129.0 90.0 130.0 C90.0 130.0 90.0 131.0 90.0 131.0 C90.0 131.0 90.0 131.0 91.0 131.0 C91.0 130.0 91.0 130.0 90.0 130.0 C90.0 130.0 90.0 130.0 90.0 129.0 C91.0 129.0 91.0 129.0 92.0 129.0 C92.0 128.0 91.0 128.0 91.0 128.0 C91.0 128.0 91.0 128.0 91.0 127.0 C93.0 127.0 94.0 127.0 94.0 129.0 C95.0 130.0 95.0 131.0 95.0 132.0 C95.0 132.0 95.0 133.0 95.0 133.0 C96.0 134.0 96.0 133.0 96.0 133.0 C96.0 133.0 96.0 132.0 99.0 132.0 C104.0 132.0 103.0 138.0 105.0 138.0 C105.0 136.0 102.0 134.0 101.0 133.0 C99.0 131.0 98.0 131.0 96.0 131.0 C96.0 131.0 95.0 131.0 94.0 131.0 C94.0 129.0 93.0 128.0 93.0 128.0 C93.0 127.0 94.0 127.0 94.0 126.0 C94.0 126.0 94.0 125.0 94.0 125.0 C93.0 125.0 93.0 125.0 93.0 126.0 C93.0 127.0 93.0 127.0 93.0 127.0 C92.0 127.0 92.0 127.0 92.0 126.0 C91.0 126.0 91.0 126.0 89.0 126.0 L89.0 125.0 C90.0 125.0 90.0 123.0 91.0 122.0 C91.0 121.0 92.0 120.0 92.0 119.0 C92.0 119.0 92.0 119.0 92.0 119.0 C91.0 119.0 91.0 119.0 91.0 119.0 C91.0 118.0 91.0 119.0 91.0 118.0 Z L93.0 118.0 Z"></path>
<path fill="#7799cc" fill_opacity="0.0" stroke="none" stroke-width="1.0" stroke-opacity="1.0"  filling="0" d="M0.0 0.0 M1.0 0.0 M1.0 0.0 M108.0 35.0 C108.0 34.0 106.0 37.0 105.0 39.0 C104.0 41.0 103.0 43.0 102.0 45.0 C97.0 54.0 97.0 53.0 95.0 52.0 C95.0 52.0 94.0 52.0 94.0 52.0 C89.0 51.0 81.0 56.0 77.0 59.0 C76.0 60.0 73.0 63.0 73.0 63.0 C73.0 59.0 75.0 52.0 76.0 49.0 C77.0 47.0 78.0 45.0 79.0 43.0 C82.0 39.0 87.0 34.0 92.0 31.0 C94.0 30.0 100.0 27.0 103.0 27.0 L104.0 27.0 C105.0 28.0 105.0 28.0 106.0 31.0 C106.0 32.0 106.0 33.0 106.0 34.0 C106.0 34.0 106.0 35.0 106.0 35.0 Z L108.0 35.0 Z"></path>
<path fill="#88ccff" fill_opacity="0.0" stroke="none" stroke-width="1.0" stroke-opacity="1.0"  filling="0" d="M0.0 0.0 M1.0 0.0 M1.0 0.0 M116.0 75.0 C120.0 68.0 127.0 66.0 131.0 72.0 C134.0 76.0 135.0 83.0 134.0 87.0 C134.0 88.0 134.0 89.0 134.0 89.0 C134.0 89.0 134.0 89.0 134.0 89.0 C133.0 89.0 133.0 89.0 133.0 89.0 C133.0 90.0 133.0 90.0 133.0 90.0 C133.0 90.0 133.0 90.0 133.0 90.0 C132.0 91.0 132.0 91.0 131.0 92.0 C131.0 93.0 131.0 93.0 130.0 94.0 C129.0 97.0 126.0 99.0 123.0 100.0 C117.0 103.0 111.0 100.0 107.0 97.0 C105.0 94.0 102.0 89.0 103.0 86.0 C103.0 85.0 103.0 83.0 104.0 83.0 C104.0 82.0 104.0 82.0 104.0 82.0 C105.0 81.0 105.0 81.0 105.0 80.0 C107.0 78.0 111.0 74.0 113.0 72.0 C114.0 71.0 115.0 71.0 115.0 71.0 C115.0 71.0 115.0 71.0 115.0 71.0 Z L116.0 75.0 Z M1.0 0.0 M116.0 75.0 M116.0 75.0 M107.0 85.0 C106.0 88.0 105.0 88.0 106.0 91.0 C111.0 104.0 126.0 96.0 127.0 86.0 C128.0 80.0 122.0 74.0 116.0 76.0 C112.0 77.0 109.0 79.0 107.0 82.0 C106.0 83.0 104.0 84.0 104.0 85.0 Z L107.0 85.0 Z M116.0 75.0 M107.0 85.0 M107.0 85.0 M137.0 89.0 C136.0 90.0 136.0 90.0 136.0 90.0 C136.0 90.0 136.0 90.0 134.0 89.0 C134.0 89.0 134.0 89.0 134.0 89.0 Z L137.0 89.0 Z M107.0 85.0 M137.0 89.0 M137.0 89.0 M134.0 89.0 C134.0 89.0 134.0 89.0 134.0 89.0 C134.0 89.0 134.0 89.0 134.0 89.0 C134.0 89.0 134.0 89.0 134.0 89.0 Z L134.0 89.0 Z"></path>
<path fill="#000000" fill_opacity="0.0" stroke="none" stroke-width="1.0" stroke-opacity="1.0"  filling="0" d="M0.0 0.0 M1.0 0.0 M1.0 0.0 M105.0 85.0 C104.0 84.0 106.0 83.0 107.0 82.0 C109.0 79.0 112.0 77.0 116.0 76.0 C122.0 74.0 128.0 80.0 127.0 86.0 C126.0 96.0 111.0 104.0 106.0 91.0 C105.0 88.0 106.0 88.0 104.0 85.0 Z L105.0 85.0 Z M1.0 0.0 M105.0 85.0 M105.0 85.0 M121.0 78.0 C117.0 79.0 119.0 85.0 123.0 84.0 C126.0 83.0 124.0 75.0 121.0 78.0 Z L121.0 78.0 Z"></path>
<path fill="#113377" fill_opacity="0.0" stroke="none" stroke-width="1.0" stroke-opacity="1.0"  filling="0" d="M0.0 0.0 M1.0 0.0 M1.0 0.0 M102.0 80.0 C101.0 79.0 102.0 77.0 99.0 77.0 C98.0 77.0 97.0 78.0 96.0 79.0 C96.0 79.0 96.0 79.0 96.0 79.0 C94.0 81.0 91.0 82.0 88.0 82.0 C87.0 82.0 86.0 81.0 85.0 80.0 C83.0 79.0 83.0 77.0 84.0 74.0 C84.0 73.0 84.0 72.0 84.0 71.0 C83.0 70.0 83.0 70.0 83.0 70.0 C83.0 69.0 82.0 69.0 83.0 67.0 C87.0 63.0 94.0 63.0 99.0 66.0 C101.0 67.0 103.0 69.0 104.0 72.0 C105.0 73.0 105.0 75.0 104.0 76.0 C104.0 77.0 103.0 79.0 102.0 80.0 Z L102.0 80.0 Z"></path>
<path fill="#cc7788" fill_opacity="0.0" stroke="none" stroke-width="1.0" stroke-opacity="1.0"  filling="0" d="M0.0 0.0 M1.0 0.0 M1.0 0.0 M78.0 101.0 C78.0 100.0 78.0 100.0 78.0 100.0 C78.0 98.0 78.0 96.0 77.0 95.0 C76.0 95.0 77.0 95.0 76.0 95.0 C77.0 93.0 82.0 90.0 85.0 91.0 C86.0 92.0 87.0 93.0 88.0 94.0 C88.0 94.0 90.0 97.0 90.0 98.0 C90.0 98.0 89.0 98.0 88.0 98.0 C87.0 98.0 86.0 98.0 86.0 98.0 C86.0 98.0 86.0 98.0 87.0 99.0 C87.0 99.0 87.0 99.0 87.0 99.0 C88.0 99.0 90.0 99.0 92.0 98.0 C92.0 98.0 93.0 98.0 93.0 98.0 C94.0 98.0 96.0 99.0 97.0 99.0 C98.0 99.0 98.0 100.0 99.0 100.0 C101.0 101.0 101.0 101.0 102.0 102.0 C104.0 105.0 105.0 109.0 103.0 111.0 C102.0 111.0 102.0 111.0 102.0 110.0 C101.0 109.0 100.0 108.0 98.0 110.0 C97.0 110.0 97.0 110.0 97.0 111.0 C97.0 111.0 97.0 111.0 97.0 111.0 C97.0 111.0 97.0 111.0 97.0 111.0 C97.0 111.0 97.0 111.0 97.0 110.0 C96.0 108.0 95.0 106.0 93.0 107.0 C91.0 107.0 90.0 109.0 89.0 110.0 C88.0 110.0 88.0 110.0 87.0 110.0 C87.0 108.0 87.0 106.0 86.0 105.0 C84.0 104.0 83.0 105.0 82.0 106.0 C82.0 106.0 82.0 107.0 82.0 107.0 C81.0 106.0 80.0 106.0 80.0 106.0 C80.0 105.0 80.0 104.0 80.0 103.0 C80.0 101.0 80.0 100.0 78.0 101.0 Z L78.0 101.0 Z"></path>
<path fill="#000000" fill_opacity="0.0" stroke="none" stroke-width="1.0" stroke-opacity="1.0"  filling="0" d="M0.0 0.0 M1.0 0.0 M1.0 0.0 M79.0 60.0 C78.0 60.0 79.0 60.0 79.0 60.0 C81.0 59.0 83.0 58.0 85.0 59.0 C87.0 61.0 87.0 63.0 86.0 65.0 C86.0 65.0 86.0 66.0 86.0 66.0 C87.0 66.0 88.0 66.0 89.0 65.0 C92.0 63.0 94.0 63.0 97.0 64.0 C106.0 70.0 108.0 78.0 102.0 83.0 C97.0 88.0 86.0 87.0 83.0 81.0 C82.0 80.0 81.0 78.0 81.0 76.0 C81.0 76.0 81.0 75.0 81.0 75.0 C81.0 75.0 81.0 74.0 81.0 74.0 C81.0 74.0 81.0 74.0 81.0 74.0 C81.0 74.0 81.0 74.0 81.0 74.0 C81.0 74.0 81.0 74.0 81.0 74.0 C81.0 74.0 81.0 74.0 81.0 74.0 C79.0 75.0 78.0 75.0 76.0 75.0 C68.0 75.0 72.0 67.0 74.0 63.0 C74.0 63.0 75.0 62.0 75.0 62.0 C76.0 62.0 76.0 61.0 77.0 61.0 L78.0 60.0 Z L79.0 60.0 Z M1.0 0.0 M79.0 60.0 M79.0 60.0 M103.0 80.0 C103.0 79.0 104.0 77.0 104.0 76.0 C105.0 75.0 105.0 73.0 104.0 72.0 C103.0 69.0 101.0 67.0 99.0 66.0 C94.0 63.0 87.0 63.0 83.0 67.0 C82.0 69.0 83.0 69.0 83.0 70.0 C83.0 70.0 83.0 70.0 84.0 71.0 C84.0 72.0 84.0 73.0 84.0 74.0 C83.0 77.0 83.0 79.0 85.0 80.0 C86.0 81.0 87.0 82.0 88.0 82.0 C91.0 82.0 94.0 81.0 96.0 79.0 C96.0 79.0 96.0 79.0 96.0 79.0 C97.0 78.0 98.0 77.0 99.0 77.0 C102.0 77.0 101.0 79.0 102.0 80.0 Z L103.0 80.0 Z M79.0 60.0 M103.0 80.0 M103.0 80.0 M85.0 62.0 C85.0 60.0 85.0 59.0 83.0 59.0 C82.0 59.0 82.0 61.0 82.0 62.0 C82.0 65.0 85.0 66.0 85.0 62.0 Z L85.0 62.0 Z"></path>
<path fill="#000000" fill_opacity="0.0" stroke="none" stroke-width="1.0" stroke-opacity="1.0"  filling="0" d="M0.0 0.0 M1.0 0.0 M1.0 0.0 M74.0 91.0 C70.0 91.0 68.0 90.0 68.0 88.0 C68.0 88.0 69.0 87.0 69.0 87.0 C69.0 86.0 69.0 86.0 68.0 85.0 C68.0 84.0 68.0 82.0 67.0 82.0 C67.0 82.0 67.0 81.0 66.0 81.0 C66.0 81.0 65.0 81.0 65.0 80.0 C66.0 80.0 66.0 80.0 66.0 80.0 C66.0 80.0 66.0 80.0 67.0 81.0 C69.0 82.0 78.0 83.0 81.0 84.0 C84.0 85.0 86.0 86.0 88.0 87.0 C90.0 88.0 92.0 90.0 94.0 91.0 C95.0 92.0 96.0 93.0 98.0 95.0 C103.0 100.0 111.0 108.0 115.0 108.0 C115.0 107.0 113.0 107.0 113.0 106.0 C115.0 105.0 119.0 110.0 119.0 112.0 C118.0 112.0 118.0 112.0 118.0 111.0 C117.0 111.0 117.0 111.0 117.0 111.0 C116.0 111.0 114.0 112.0 114.0 112.0 L111.0 113.0 C110.0 113.0 110.0 113.0 110.0 113.0 C110.0 114.0 110.0 114.0 110.0 114.0 C110.0 114.0 110.0 114.0 110.0 114.0 C109.0 114.0 109.0 114.0 108.0 114.0 C108.0 114.0 107.0 114.0 107.0 114.0 C99.0 116.0 91.0 115.0 84.0 111.0 C78.0 108.0 70.0 102.0 71.0 93.0 Z L74.0 91.0 Z M1.0 0.0 M74.0 91.0 M74.0 91.0 M77.0 97.0 C77.0 97.0 76.0 97.0 77.0 95.0 C78.0 96.0 78.0 98.0 78.0 100.0 C78.0 100.0 78.0 100.0 78.0 101.0 C80.0 100.0 80.0 101.0 80.0 103.0 C80.0 104.0 80.0 105.0 80.0 106.0 C80.0 106.0 81.0 106.0 82.0 107.0 C82.0 107.0 82.0 106.0 82.0 106.0 C83.0 105.0 84.0 104.0 86.0 105.0 C87.0 106.0 87.0 108.0 87.0 110.0 C88.0 110.0 88.0 110.0 89.0 110.0 C90.0 109.0 91.0 107.0 93.0 107.0 C95.0 106.0 96.0 108.0 97.0 110.0 C97.0 111.0 97.0 111.0 97.0 111.0 C97.0 111.0 97.0 111.0 97.0 111.0 C97.0 111.0 97.0 111.0 97.0 111.0 C97.0 110.0 97.0 110.0 98.0 110.0 C100.0 108.0 101.0 109.0 102.0 110.0 C102.0 111.0 102.0 111.0 103.0 111.0 C105.0 109.0 104.0 105.0 102.0 102.0 C101.0 101.0 101.0 101.0 99.0 100.0 C98.0 100.0 98.0 99.0 97.0 99.0 C96.0 99.0 94.0 98.0 93.0 98.0 C93.0 98.0 92.0 98.0 92.0 98.0 C90.0 99.0 88.0 99.0 87.0 99.0 C87.0 99.0 87.0 99.0 87.0 99.0 C86.0 98.0 86.0 98.0 86.0 98.0 C86.0 98.0 87.0 98.0 88.0 98.0 C89.0 98.0 90.0 98.0 90.0 98.0 C90.0 97.0 88.0 94.0 88.0 94.0 C87.0 93.0 86.0 92.0 85.0 91.0 C82.0 90.0 77.0 93.0 76.0 95.0 Z L77.0 97.0 Z M74.0 91.0 M77.0 97.0 M77.0 97.0 M80.0 84.0 C77.0 85.0 77.0 86.0 76.0 87.0 C75.0 87.0 74.0 87.0 73.0 86.0 C73.0 86.0 73.0 86.0 72.0 86.0 C72.0 89.0 72.0 91.0 73.0 94.0 C75.0 93.0 75.0 93.0 76.0 94.0 C76.0 94.0 76.0 94.0 76.0 95.0 C77.0 95.0 78.0 93.0 81.0 92.0 C87.0 90.0 89.0 93.0 91.0 97.0 C91.0 97.0 91.0 97.0 92.0 97.0 C92.0 98.0 92.0 99.0 94.0 99.0 C95.0 99.0 95.0 99.0 96.0 99.0 C97.0 99.0 97.0 99.0 98.0 99.0 L98.0 96.0 C98.0 96.0 98.0 96.0 98.0 95.0 C98.0 95.0 98.0 95.0 98.0 94.0 C97.0 94.0 96.0 94.0 96.0 94.0 C94.0 94.0 93.0 94.0 92.0 92.0 C91.0 88.0 92.0 89.0 89.0 87.0 C89.0 87.0 89.0 87.0 88.0 87.0 C88.0 86.0 84.0 84.0 83.0 85.0 C82.0 85.0 82.0 86.0 80.0 86.0 C79.0 86.0 79.0 86.0 78.0 85.0 C78.0 85.0 78.0 85.0 78.0 85.0 Z L80.0 84.0 Z M77.0 97.0 M80.0 84.0 M80.0 84.0 M103.0 98.0 C102.0 100.0 102.0 100.0 102.0 101.0 C102.0 101.0 102.0 101.0 102.0 101.0 C104.0 102.0 104.0 103.0 105.0 105.0 C105.0 107.0 105.0 108.0 105.0 109.0 C105.0 109.0 104.0 110.0 104.0 110.0 C104.0 111.0 104.0 111.0 104.0 112.0 C108.0 112.0 114.0 109.0 117.0 108.0 C116.0 106.0 115.0 108.0 112.0 106.0 C111.0 106.0 111.0 105.0 110.0 105.0 C109.0 105.0 109.0 105.0 109.0 105.0 C109.0 105.0 108.0 105.0 108.0 105.0 C106.0 105.0 105.0 105.0 105.0 102.0 C105.0 101.0 105.0 101.0 104.0 100.0 C103.0 100.0 103.0 100.0 102.0 100.0 Z L103.0 98.0 Z M80.0 84.0 M103.0 98.0 M103.0 98.0 M91.0 111.0 C91.0 113.0 95.0 114.0 96.0 114.0 C96.0 112.0 95.0 109.0 94.0 109.0 C92.0 109.0 90.0 112.0 90.0 113.0 Z L91.0 111.0 Z M103.0 98.0 M91.0 111.0 M91.0 111.0 M73.0 80.0 C71.0 84.0 72.0 86.0 73.0 87.0 C74.0 87.0 74.0 87.0 75.0 86.0 L75.0 86.0 C75.0 86.0 75.0 86.0 75.0 86.0 C76.0 86.0 76.0 85.0 76.0 84.0 C76.0 84.0 71.0 83.0 70.0 82.0 Z L73.0 80.0 Z M91.0 111.0 M73.0 80.0 M73.0 80.0 M76.0 97.0 C73.0 98.0 75.0 103.0 76.0 103.0 C77.0 103.0 77.0 102.0 77.0 101.0 C77.0 101.0 77.0 101.0 77.0 101.0 C77.0 97.0 75.0 98.0 74.0 98.0 C74.0 98.0 73.0 98.0 73.0 99.0 Z L76.0 97.0 Z M73.0 80.0 M76.0 97.0 M76.0 97.0 M98.0 90.0 C97.0 96.0 98.0 98.0 98.0 99.0 C99.0 100.0 102.0 100.0 103.0 99.0 C103.0 99.0 98.0 94.0 97.0 94.0 Z L98.0 90.0 Z M76.0 97.0 M98.0 90.0 M98.0 90.0 M87.0 107.0 C86.0 108.0 86.0 106.0 85.0 106.0 C84.0 105.0 83.0 107.0 82.0 107.0 C83.0 108.0 86.0 109.0 86.0 109.0 Z L87.0 107.0 Z M98.0 90.0 M87.0 107.0 M87.0 107.0 M103.0 112.0 C102.0 112.0 101.0 110.0 100.0 111.0 C100.0 111.0 97.0 112.0 97.0 113.0 L102.0 113.0 Z L103.0 112.0 Z M87.0 107.0 M103.0 112.0 M103.0 112.0 M92.0 88.0 C91.0 89.0 92.0 91.0 92.0 91.0 C93.0 92.0 94.0 92.0 96.0 92.0 C95.0 91.0 92.0 89.0 91.0 88.0 Z L92.0 88.0 Z M103.0 112.0 M92.0 88.0 M92.0 88.0 M77.0 102.0 C77.0 105.0 79.0 107.0 79.0 107.0 C80.0 105.0 80.0 104.0 79.0 103.0 C78.0 103.0 77.0 103.0 76.0 104.0 Z L77.0 102.0 Z M92.0 88.0 M77.0 102.0 M77.0 102.0 M75.0 93.0 C74.0 96.0 74.0 98.0 75.0 98.0 C76.0 98.0 77.0 97.0 76.0 96.0 C76.0 95.0 75.0 95.0 74.0 95.0 C74.0 95.0 74.0 95.0 74.0 95.0 Z L75.0 93.0 Z M77.0 102.0 M75.0 93.0 M75.0 93.0 M80.0 84.0 C77.0 85.0 78.0 86.0 79.0 86.0 C80.0 87.0 81.0 86.0 81.0 85.0 C80.0 85.0 78.0 84.0 77.0 84.0 Z L80.0 84.0 Z M75.0 93.0 M80.0 84.0 M80.0 84.0 M106.0 104.0 C106.0 105.0 106.0 106.0 106.0 106.0 C107.0 106.0 108.0 106.0 108.0 106.0 C108.0 106.0 108.0 106.0 109.0 106.0 C108.0 106.0 108.0 106.0 108.0 105.0 C107.0 105.0 106.0 104.0 106.0 104.0 Z L106.0 104.0 Z"></path>
<path fill="#884455" fill_opacity="0.0" stroke="none" stroke-width="1.0" stroke-opacity="1.0"  filling="0" d="M0.0 0.0 M1.0 0.0 M1.0 0.0 M78.0 85.0 C78.0 85.0 78.0 85.0 78.0 85.0 C79.0 86.0 79.0 86.0 80.0 86.0 C82.0 86.0 82.0 85.0 83.0 85.0 C84.0 84.0 88.0 86.0 88.0 87.0 C89.0 87.0 89.0 87.0 89.0 87.0 C92.0 89.0 91.0 88.0 92.0 92.0 C93.0 94.0 94.0 94.0 96.0 94.0 C96.0 94.0 97.0 94.0 98.0 94.0 C98.0 95.0 98.0 95.0 98.0 95.0 C98.0 96.0 98.0 96.0 98.0 96.0 L98.0 99.0 C97.0 99.0 97.0 99.0 96.0 99.0 C95.0 99.0 95.0 99.0 94.0 99.0 C92.0 99.0 92.0 98.0 92.0 97.0 C91.0 97.0 91.0 97.0 91.0 97.0 C89.0 93.0 87.0 90.0 81.0 92.0 C78.0 93.0 77.0 95.0 76.0 95.0 C76.0 94.0 76.0 94.0 76.0 94.0 C75.0 93.0 75.0 93.0 73.0 94.0 C72.0 91.0 72.0 89.0 72.0 86.0 C73.0 86.0 73.0 86.0 73.0 86.0 C74.0 87.0 75.0 87.0 76.0 87.0 C77.0 86.0 77.0 85.0 78.0 85.0 Z L78.0 85.0 Z"></path>
<path fill="#88ccff" fill_opacity="0.0" stroke="none" stroke-width="1.0" stroke-opacity="1.0"  filling="0" d="M0.0 0.0 M1.0 0.0 M1.0 0.0 M68.0 92.0 L66.0 90.0 C66.0 90.0 66.0 90.0 66.0 90.0 C67.0 90.0 67.0 89.0 68.0 89.0 C68.0 89.0 68.0 90.0 68.0 90.0 C68.0 91.0 68.0 92.0 68.0 92.0 L69.0 93.0 C70.0 102.0 78.0 108.0 84.0 111.0 C91.0 115.0 99.0 116.0 107.0 114.0 C107.0 114.0 108.0 114.0 108.0 114.0 C109.0 114.0 109.0 114.0 110.0 114.0 C110.0 114.0 111.0 114.0 111.0 113.0 C112.0 113.0 113.0 113.0 113.0 115.0 C113.0 115.0 113.0 115.0 113.0 116.0 C113.0 116.0 111.0 116.0 110.0 117.0 C109.0 117.0 108.0 117.0 108.0 116.0 C107.0 116.0 106.0 116.0 106.0 116.0 C104.0 116.0 103.0 116.0 102.0 117.0 C101.0 117.0 101.0 117.0 101.0 117.0 C100.0 118.0 100.0 118.0 98.0 118.0 C92.0 118.0 88.0 117.0 83.0 114.0 C81.0 113.0 77.0 110.0 75.0 108.0 C73.0 106.0 71.0 103.0 70.0 100.0 C69.0 98.0 68.0 94.0 68.0 92.0 Z L68.0 92.0 Z"></path>
<path fill="#7799cc" fill_opacity="0.0" stroke="none" stroke-width="1.0" stroke-opacity="1.0"  filling="0" d="M0.0 0.0 M1.0 0.0 M1.0 0.0 M93.0 154.0 C93.0 154.0 94.0 152.0 94.0 152.0 C97.0 152.0 99.0 153.0 103.0 152.0 C108.0 150.0 109.0 150.0 110.0 149.0 C110.0 149.0 112.0 152.0 112.0 153.0 C113.0 154.0 113.0 155.0 114.0 156.0 C113.0 156.0 111.0 157.0 109.0 157.0 C108.0 157.0 106.0 158.0 105.0 158.0 C104.0 158.0 103.0 158.0 101.0 158.0 C100.0 158.0 98.0 158.0 96.0 159.0 L95.0 158.0 C95.0 157.0 95.0 157.0 94.0 156.0 C94.0 155.0 94.0 155.0 94.0 154.0 C93.0 154.0 93.0 154.0 93.0 154.0 L93.0 154.0 Z L93.0 154.0 Z"></path>
<path fill="#88ccff" fill_opacity="0.0" stroke="none" stroke-width="1.0" stroke-opacity="1.0"  filling="0" d="M0.0 0.0 M1.0 0.0 M1.0 0.0 M78.0 60.0 C77.0 60.0 77.0 60.0 77.0 60.0 C77.0 60.0 77.0 60.0 77.0 60.0 L80.0 56.0 C80.0 56.0 81.0 55.0 82.0 55.0 C90.0 50.0 95.0 51.0 92.0 57.0 C92.0 58.0 91.0 59.0 91.0 59.0 L91.0 60.0 C91.0 60.0 91.0 60.0 91.0 60.0 C91.0 60.0 91.0 60.0 91.0 61.0 C90.0 62.0 90.0 62.0 89.0 63.0 C88.0 66.0 87.0 66.0 86.0 66.0 C86.0 66.0 86.0 65.0 86.0 65.0 C87.0 63.0 87.0 61.0 85.0 59.0 C83.0 58.0 81.0 59.0 79.0 60.0 C79.0 60.0 78.0 60.0 78.0 60.0 Z L78.0 60.0 Z"></path>
<path fill="#ffff44" fill_opacity="0.0" stroke="none" stroke-width="1.0" stroke-opacity="1.0"  filling="0" d="M0.0 0.0 M1.0 0.0 M1.0 0.0 M68.0 31.0 C68.0 30.0 69.0 30.0 70.0 29.0 C72.0 28.0 73.0 27.0 73.0 25.0 C74.0 24.0 74.0 24.0 74.0 23.0 C74.0 23.0 75.0 24.0 75.0 25.0 C75.0 25.0 75.0 25.0 75.0 25.0 C76.0 26.0 76.0 27.0 76.0 27.0 C79.0 30.0 80.0 30.0 80.0 31.0 C80.0 32.0 79.0 32.0 78.0 32.0 C78.0 33.0 77.0 33.0 76.0 34.0 C75.0 36.0 75.0 38.0 74.0 39.0 C73.0 37.0 74.0 35.0 70.0 32.0 L69.0 31.0 C68.0 31.0 68.0 31.0 68.0 31.0 Z L68.0 31.0 Z"></path>
<path fill="#884455" fill_opacity="0.0" stroke="none" stroke-width="1.0" stroke-opacity="1.0"  filling="0" d="M0.0 0.0 M1.0 0.0 M1.0 0.0 M108.0 105.0 C108.0 105.0 109.0 105.0 109.0 105.0 C109.0 105.0 109.0 105.0 110.0 105.0 C111.0 105.0 111.0 106.0 112.0 106.0 C115.0 108.0 116.0 106.0 117.0 108.0 C114.0 109.0 108.0 112.0 104.0 112.0 C104.0 111.0 104.0 111.0 104.0 110.0 C104.0 110.0 105.0 109.0 105.0 109.0 C105.0 108.0 105.0 107.0 105.0 105.0 C104.0 103.0 104.0 102.0 102.0 101.0 C102.0 101.0 102.0 101.0 102.0 101.0 C102.0 100.0 102.0 100.0 102.0 100.0 C103.0 100.0 103.0 100.0 104.0 100.0 C105.0 101.0 105.0 101.0 105.0 102.0 C105.0 105.0 106.0 105.0 108.0 105.0 Z L108.0 105.0 Z"></path>
<path fill="#88ccff" fill_opacity="0.0" stroke="none" stroke-width="1.0" stroke-opacity="1.0"  filling="0" d="M0.0 0.0 M1.0 0.0 M1.0 0.0 M67.0 73.0 C67.0 71.0 70.0 68.0 70.0 67.0 C72.0 65.0 72.0 65.0 74.0 63.0 C74.0 62.0 75.0 62.0 75.0 62.0 C75.0 62.0 75.0 62.0 75.0 62.0 C75.0 62.0 74.0 63.0 74.0 63.0 C72.0 67.0 68.0 75.0 76.0 75.0 C78.0 75.0 79.0 75.0 81.0 74.0 L81.0 76.0 C80.0 76.0 79.0 77.0 77.0 77.0 C73.0 78.0 70.0 78.0 68.0 74.0 L67.0 73.0 Z L67.0 73.0 Z"></path>
<path fill="#eeaa22" fill_opacity="0.0" stroke="none" stroke-width="1.0" stroke-opacity="1.0"  filling="0" d="M0.0 0.0 M1.0 0.0 M1.0 0.0 M67.0 31.0 C66.0 30.0 68.0 32.0 69.0 31.0 C71.0 30.0 72.0 28.0 73.0 26.0 C73.0 25.0 73.0 24.0 74.0 23.0 C74.0 22.0 74.0 22.0 74.0 22.0 C75.0 22.0 75.0 25.0 76.0 26.0 C77.0 32.0 82.0 31.0 83.0 33.0 C82.0 33.0 82.0 34.0 81.0 34.0 C76.0 36.0 76.0 39.0 75.0 41.0 C75.0 43.0 75.0 44.0 74.0 44.0 C73.0 43.0 74.0 42.0 73.0 40.0 C71.0 33.0 68.0 35.0 66.0 33.0 Z L67.0 31.0 Z M1.0 0.0 M67.0 31.0 M67.0 31.0 M68.0 31.0 C68.0 31.0 68.0 31.0 69.0 31.0 L70.0 32.0 C74.0 35.0 73.0 37.0 74.0 39.0 C75.0 38.0 75.0 36.0 76.0 34.0 C77.0 33.0 78.0 33.0 78.0 32.0 C79.0 32.0 80.0 32.0 80.0 31.0 C80.0 30.0 79.0 30.0 76.0 27.0 C76.0 27.0 76.0 26.0 75.0 25.0 C75.0 25.0 75.0 25.0 75.0 25.0 C75.0 24.0 74.0 23.0 74.0 23.0 C74.0 24.0 74.0 24.0 73.0 25.0 C73.0 27.0 72.0 28.0 70.0 29.0 C69.0 30.0 68.0 30.0 68.0 31.0 Z L68.0 31.0 Z"></path>
<path fill="#6699cc" fill_opacity="0.0" stroke="none" stroke-width="1.0" stroke-opacity="1.0"  filling="0" d="M0.0 0.0 M1.0 0.0 M1.0 0.0 M47.0 48.0 C46.0 48.0 45.0 47.0 44.0 46.0 C44.0 44.0 44.0 43.0 45.0 42.0 C46.0 40.0 48.0 38.0 51.0 37.0 C51.0 38.0 51.0 38.0 51.0 39.0 C51.0 39.0 51.0 39.0 51.0 40.0 C50.0 42.0 51.0 43.0 51.0 44.0 C51.0 45.0 52.0 46.0 50.0 46.0 C50.0 46.0 50.0 46.0 50.0 46.0 C50.0 45.0 50.0 45.0 49.0 45.0 C47.0 45.0 47.0 45.0 47.0 48.0 Z L47.0 48.0 Z"></path>
<path fill="#3366aa" fill_opacity="0.0" stroke="none" stroke-width="1.0" stroke-opacity="1.0"  filling="0" d="M0.0 0.0 M1.0 0.0 M1.0 0.0 M103.0 27.0 C103.0 27.0 104.0 27.0 104.0 27.0 C105.0 27.0 105.0 27.0 105.0 27.0 C108.0 26.0 111.0 26.0 113.0 27.0 C113.0 29.0 111.0 32.0 110.0 34.0 C109.0 34.0 108.0 35.0 106.0 35.0 C106.0 35.0 106.0 34.0 106.0 34.0 C106.0 33.0 106.0 32.0 106.0 31.0 C105.0 28.0 105.0 28.0 104.0 27.0 L103.0 27.0 Z L103.0 27.0 Z"></path>
<path fill="#7799cc" fill_opacity="0.0" stroke="none" stroke-width="1.0" stroke-opacity="1.0"  filling="0" d="M0.0 0.0 M1.0 0.0 M1.0 0.0 M52.0 46.0 C51.0 45.0 50.0 40.0 52.0 37.0 C56.0 36.0 58.0 37.0 58.0 38.0 C59.0 39.0 58.0 39.0 58.0 40.0 C58.0 40.0 58.0 40.0 58.0 41.0 C57.0 42.0 57.0 42.0 57.0 43.0 C57.0 43.0 56.0 43.0 56.0 43.0 C55.0 43.0 53.0 43.0 52.0 44.0 C52.0 44.0 52.0 45.0 52.0 45.0 C53.0 45.0 53.0 45.0 52.0 46.0 Z L52.0 46.0 Z"></path>
<path fill="#000000" fill_opacity="0.0" stroke="none" stroke-width="1.0" stroke-opacity="1.0"  filling="0" d="M0.0 0.0 M1.0 0.0 M1.0 0.0 M67.0 123.0 C67.0 125.0 70.0 124.0 71.0 124.0 C72.0 124.0 72.0 124.0 73.0 124.0 C73.0 125.0 72.0 125.0 71.0 125.0 C70.0 125.0 70.0 125.0 69.0 126.0 C68.0 127.0 67.0 128.0 67.0 130.0 C68.0 130.0 68.0 129.0 69.0 129.0 C70.0 128.0 71.0 127.0 72.0 127.0 C72.0 129.0 69.0 128.0 69.0 132.0 L69.0 132.0 C69.0 132.0 69.0 132.0 69.0 133.0 C69.0 133.0 69.0 133.0 69.0 134.0 C70.0 133.0 70.0 130.0 71.0 130.0 C72.0 131.0 71.0 132.0 71.0 132.0 C71.0 133.0 71.0 133.0 71.0 134.0 C70.0 134.0 71.0 135.0 71.0 135.0 C71.0 136.0 71.0 136.0 71.0 136.0 C71.0 136.0 71.0 136.0 71.0 137.0 L71.0 138.0 C71.0 138.0 71.0 138.0 71.0 138.0 C71.0 138.0 71.0 138.0 71.0 138.0 C70.0 138.0 70.0 137.0 70.0 136.0 C70.0 136.0 70.0 135.0 70.0 135.0 L68.0 135.0 C68.0 134.0 68.0 133.0 68.0 131.0 C68.0 131.0 68.0 131.0 68.0 130.0 C68.0 130.0 67.0 131.0 67.0 131.0 C67.0 131.0 67.0 131.0 66.0 131.0 C66.0 130.0 66.0 128.0 67.0 128.0 C67.0 127.0 68.0 126.0 68.0 125.0 C67.0 125.0 67.0 125.0 66.0 124.0 C64.0 123.0 68.0 121.0 70.0 121.0 C70.0 121.0 71.0 120.0 71.0 120.0 C71.0 120.0 71.0 120.0 71.0 120.0 C72.0 120.0 73.0 119.0 73.0 120.0 C73.0 121.0 67.0 122.0 67.0 123.0 Z L67.0 123.0 Z"></path>
<path fill="#FFFFFF" fill_opacity="0.0" stroke="none" stroke-width="1.0" stroke-opacity="1.0"  filling="0" d="M0.0 0.0 M1.0 0.0 M1.0 0.0 M121.0 80.0 C124.0 75.0 126.0 83.0 123.0 84.0 C119.0 85.0 117.0 79.0 121.0 80.0 Z L121.0 80.0 Z"></path>
<path fill="#ffffff" fill_opacity="0.0" stroke="none" stroke-width="1.0" stroke-opacity="1.0"  filling="0" d="M0.0 0.0 M1.0 0.0 M1.0 0.0 M90.0 113.0 C90.0 112.0 92.0 109.0 94.0 109.0 C95.0 109.0 96.0 112.0 96.0 114.0 C95.0 114.0 91.0 113.0 90.0 113.0 Z L90.0 113.0 Z"></path>
<path fill="#ffffff" fill_opacity="0.0" stroke="none" stroke-width="1.0" stroke-opacity="1.0"  filling="0" d="M0.0 0.0 M1.0 0.0 M1.0 0.0 M85.0 62.0 C85.0 66.0 82.0 65.0 82.0 62.0 C82.0 61.0 82.0 59.0 83.0 59.0 C85.0 59.0 85.0 60.0 85.0 62.0 Z L85.0 62.0 Z"></path>
<path fill="#ffffff" fill_opacity="0.0" stroke="none" stroke-width="1.0" stroke-opacity="1.0"  filling="0" d="M0.0 0.0 M1.0 0.0 M1.0 0.0 M76.0 84.0 C76.0 85.0 76.0 86.0 75.0 86.0 C75.0 86.0 75.0 86.0 75.0 86.0 L75.0 86.0 C74.0 87.0 74.0 87.0 73.0 87.0 C72.0 86.0 71.0 84.0 70.0 82.0 C71.0 83.0 76.0 84.0 76.0 84.0 Z L76.0 84.0 Z"></path>
<path fill="#ffffff" fill_opacity="0.0" stroke="none" stroke-width="1.0" stroke-opacity="1.0"  filling="0" d="M0.0 0.0 M1.0 0.0 M1.0 0.0 M73.0 99.0 C73.0 98.0 74.0 98.0 74.0 98.0 C75.0 98.0 77.0 97.0 77.0 101.0 C77.0 101.0 77.0 101.0 77.0 101.0 C77.0 102.0 77.0 103.0 76.0 103.0 C75.0 103.0 73.0 98.0 73.0 99.0 Z L73.0 99.0 Z"></path>
<path fill="#ffffff" fill_opacity="0.0" stroke="none" stroke-width="1.0" stroke-opacity="1.0"  filling="0" d="M0.0 0.0 M1.0 0.0 M1.0 0.0 M97.0 94.0 C98.0 94.0 103.0 99.0 103.0 99.0 C102.0 100.0 99.0 100.0 98.0 99.0 C98.0 98.0 97.0 96.0 97.0 94.0"></path>
<path fill="#000000" fill_opacity="0.0" stroke="none" stroke-width="1.0" stroke-opacity="1.0"  filling="0" d="M0.0 0.0 M1.0 0.0 M1.0 0.0 M96.0 61.0 C95.0 62.0 107.0 67.0 106.0 70.0 C105.0 70.0 105.0 69.0 101.0 66.0 C98.0 64.0 96.0 64.0 94.0 63.0 Z L96.0 61.0 Z"></path>
<path fill="#ffffff" fill_opacity="0.0" stroke="none" stroke-width="1.0" stroke-opacity="1.0"  filling="0" d="M0.0 0.0 M1.0 0.0 M1.0 0.0 M86.0 109.0 C86.0 109.0 83.0 108.0 82.0 107.0 C83.0 107.0 84.0 105.0 85.0 106.0 C86.0 106.0 86.0 108.0 86.0 109.0 Z L86.0 109.0 Z"></path>
<path fill="#ffffff" fill_opacity="0.0" stroke="none" stroke-width="1.0" stroke-opacity="1.0"  filling="0" d="M0.0 0.0 M1.0 0.0 M1.0 0.0 M102.0 113.0 L97.0 113.0 C97.0 112.0 100.0 111.0 100.0 111.0 C101.0 110.0 102.0 112.0 102.0 113.0 Z L102.0 113.0 Z"></path>
<path fill="#ffffff" fill_opacity="0.0" stroke="none" stroke-width="1.0" stroke-opacity="1.0"  filling="0" d="M0.0 0.0 M1.0 0.0 M1.0 0.0 M96.0 92.0 C94.0 92.0 93.0 92.0 92.0 91.0 C92.0 91.0 91.0 89.0 91.0 88.0 C92.0 89.0 95.0 91.0 96.0 92.0 Z L96.0 92.0 Z"></path>
<path fill="#3366aa" fill_opacity="0.0" stroke="none" stroke-width="1.0" stroke-opacity="1.0"  filling="0" d="M0.0 0.0 M1.0 0.0 M1.0 0.0 M58.0 44.0 C57.0 45.0 57.0 45.0 56.0 44.0 C56.0 44.0 56.0 44.0 56.0 44.0 C55.0 43.0 55.0 43.0 54.0 44.0 C54.0 44.0 54.0 44.0 54.0 44.0 C53.0 43.0 53.0 43.0 52.0 43.0 C52.0 42.0 52.0 42.0 52.0 42.0 C53.0 42.0 56.0 42.0 56.0 44.0 Z L58.0 44.0 Z"></path>
<path fill="#000000" fill_opacity="0.0" stroke="none" stroke-width="1.0" stroke-opacity="1.0"  filling="0" d="M0.0 0.0 M1.0 0.0 M1.0 0.0 M107.0 65.0 C105.0 65.0 107.0 66.0 105.0 67.0 C104.0 67.0 104.0 67.0 104.0 67.0 C104.0 67.0 104.0 67.0 104.0 67.0 C99.0 63.0 98.0 64.0 100.0 62.0 C101.0 62.0 103.0 63.0 104.0 64.0 C104.0 64.0 104.0 64.0 104.0 64.0 C105.0 65.0 107.0 66.0 105.0 67.0 Z L107.0 65.0 Z"></path>
<path fill="#ffffff" fill_opacity="0.0" stroke="none" stroke-width="1.0" stroke-opacity="1.0"  filling="0" d="M0.0 0.0 M1.0 0.0 M1.0 0.0 M76.0 104.0 C77.0 103.0 78.0 103.0 79.0 103.0 C80.0 104.0 80.0 105.0 79.0 107.0 C79.0 107.0 77.0 105.0 76.0 104.0"></path>
<path fill="#3366aa" fill_opacity="0.0" stroke="none" stroke-width="1.0" stroke-opacity="1.0"  filling="0" d="M0.0 0.0 M1.0 0.0 M1.0 0.0 M55.0 50.0 C54.0 49.0 53.0 47.0 53.0 46.0 C53.0 45.0 54.0 45.0 54.0 45.0 C55.0 45.0 55.0 46.0 55.0 46.0 C55.0 47.0 55.0 47.0 55.0 47.0 C55.0 47.0 55.0 48.0 55.0 48.0 C55.0 49.0 55.0 49.0 55.0 50.0 Z L55.0 50.0 Z"></path>
<path fill="#ffffff" fill_opacity="0.0" stroke="none" stroke-width="1.0" stroke-opacity="1.0"  filling="0" d="M0.0 0.0 M1.0 0.0 M1.0 0.0 M73.0 96.0 C73.0 95.0 76.0 95.0 76.0 96.0 C77.0 97.0 76.0 98.0 75.0 98.0 C74.0 98.0 74.0 96.0 74.0 95.0 C75.0 95.0 76.0 95.0 76.0 96.0 C77.0 97.0 76.0 98.0 75.0 98.0 Z L73.0 96.0 Z"></path>
<path fill="#ffffff" fill_opacity="0.0" stroke="none" stroke-width="1.0" stroke-opacity="1.0"  filling="0" d="M0.0 0.0 M1.0 0.0 M1.0 0.0 M81.0 85.0 C81.0 86.0 80.0 87.0 79.0 86.0 C78.0 86.0 77.0 85.0 77.0 84.0 C78.0 84.0 80.0 85.0 81.0 85.0 Z L81.0 85.0 Z"></path>
<path fill="#3366aa" fill_opacity="0.0" stroke="none" stroke-width="1.0" stroke-opacity="1.0"  filling="0" d="M0.0 0.0 M1.0 0.0 M1.0 0.0 M50.0 49.0 C49.0 49.0 47.0 47.0 48.0 46.0 C49.0 45.0 49.0 46.0 50.0 47.0 C50.0 47.0 50.0 47.0 50.0 47.0 C50.0 47.0 50.0 47.0 50.0 47.0 C50.0 47.0 50.0 47.0 50.0 47.0 C50.0 47.0 50.0 47.0 50.0 48.0 Z L50.0 49.0 Z"></path>
<path fill="#ffffff" fill_opacity="0.0" stroke="none" stroke-width="1.0" stroke-opacity="1.0"  filling="0" d="M0.0 0.0 M1.0 0.0 M1.0 0.0 M109.0 106.0 C108.0 106.0 108.0 106.0 108.0 106.0 C108.0 106.0 107.0 106.0 106.0 106.0 C106.0 106.0 -6.0 -6.0 106.0 106.0 C106.0 104.0 107.0 105.0 108.0 105.0 C108.0 106.0 108.0 106.0 109.0 106.0 C108.0 106.0 108.0 106.0 108.0 106.0 C108.0 106.0 107.0 106.0 106.0 106.0 C106.0 106.0 106.0 105.0 106.0 104.0 C106.0 104.0 107.0 105.0 108.0 105.0 Z L109.0 106.0 Z"></path></svg>